<svg xmlns="http://www.w3.org/2000/svg" width="1600" height="1000" viewBox="0 0 1600 1000">
  <defs>
    <linearGradient id="bg" x1="0" x2="1" y1="0" y2="1">
      <stop offset="0" stop-color="#06070b"/>
      <stop offset="0.6" stop-color="#090a10"/>
      <stop offset="1" stop-color="#05060a"/>
    </linearGradient>

    <filter id="softBlur" x="-20%" y="-20%" width="140%" height="140%">
      <feGaussianBlur stdDeviation="26"/>
    </filter>

    <filter id="streak" x="-30%" y="-30%" width="160%" height="160%">
      <feGaussianBlur stdDeviation="3" result="b"/>
      <feColorMatrix in="b" type="matrix" values="
        1 0 0 0 0
        0 1 0 0 0
        0 0 1 0 0
        0 0 0 0.7 0" result="a"/>
      <feMerge>
        <feMergeNode in="a"/>
      </feMerge>
    </filter>

    <radialGradient id="orb1" cx="30%" cy="22%" r="62%">
      <stop offset="0" stop-color="#6d6bff" stop-opacity="0.95"/>
      <stop offset="0.42" stop-color="#b04bff" stop-opacity="0.35"/>
      <stop offset="1" stop-color="#000000" stop-opacity="0"/>
    </radialGradient>

    <radialGradient id="orb2" cx="78%" cy="18%" r="62%">
      <stop offset="0" stop-color="#3cb4ff" stop-opacity="0.75"/>
      <stop offset="0.5" stop-color="#2a6cff" stop-opacity="0.25"/>
      <stop offset="1" stop-color="#000000" stop-opacity="0"/>
    </radialGradient>

    <radialGradient id="orb3" cx="68%" cy="78%" r="66%">
      <stop offset="0" stop-color="#ff4bd6" stop-opacity="0.7"/>
      <stop offset="0.55" stop-color="#6d6bff" stop-opacity="0.18"/>
      <stop offset="1" stop-color="#000000" stop-opacity="0"/>
    </radialGradient>

    <linearGradient id="glass" x1="0" x2="1" y1="0" y2="0">
      <stop offset="0" stop-color="#ffffff" stop-opacity="0"/>
      <stop offset="0.45" stop-color="#ffffff" stop-opacity="0.12"/>
      <stop offset="0.55" stop-color="#ffffff" stop-opacity="0.07"/>
      <stop offset="1" stop-color="#ffffff" stop-opacity="0"/>
    </linearGradient>

    <filter id="grain" x="-10%" y="-10%" width="120%" height="120%">
      <feTurbulence type="fractalNoise" baseFrequency="0.85" numOctaves="3" stitchTiles="stitch" />
      <feColorMatrix type="matrix" values="
        1 0 0 0 0
        0 1 0 0 0
        0 0 1 0 0
        0 0 0 0.08 0" />
    </filter>
  </defs>

  <rect width="1600" height="1000" fill="url(#bg)"/>

  <!-- Blurred 3D-ish blobs -->
  <g filter="url(#softBlur)">
    <circle cx="420" cy="250" r="340" fill="url(#orb1)"/>
    <circle cx="1240" cy="220" r="320" fill="url(#orb2)"/>
    <circle cx="1100" cy="820" r="420" fill="url(#orb3)"/>
  </g>

  <!-- Soft light streaks -->
  <g filter="url(#streak)" opacity="0.55">
    <path d="M-120 620 C 260 520, 520 520, 820 420 C 1120 320, 1340 300, 1760 260" fill="none" stroke="#7dd3fc" stroke-opacity="0.24" stroke-width="18" stroke-linecap="round"/>
    <path d="M-140 680 C 240 560, 520 560, 860 460 C 1200 360, 1400 350, 1740 320" fill="none" stroke="#a78bfa" stroke-opacity="0.20" stroke-width="14" stroke-linecap="round"/>
  </g>

  <!-- Glass reflections -->
  <g opacity="0.9">
    <rect x="-120" y="140" width="980" height="160" rx="80" fill="url(#glass)" transform="rotate(-9 0 0)"/>
    <rect x="780" y="500" width="980" height="160" rx="80" fill="url(#glass)" transform="rotate(10 0 0)"/>
  </g>

  <!-- Subtle grain baked into the wallpaper too -->
  <rect width="1600" height="1000" filter="url(#grain)" opacity="0.9"/>
</svg>

